<mxfile host="app.diagrams.net" modified="2020-10-15T09:25:11.919Z" agent="5.0 (Macintosh; Intel Mac OS X 10_15_7) AppleWebKit/537.36 (KHTML, like Gecko) Chrome/86.0.4240.80 Safari/537.36" etag="dbB4PzRtAo5mzYE8FeCj" version="13.8.0" type="github">
  <diagram id="U7eixvjcXJmSaDc2BlxG" name="Page-1">
    <mxGraphModel dx="946" dy="614" grid="1" gridSize="10" guides="1" tooltips="1" connect="1" arrows="1" fold="1" page="1" pageScale="1" pageWidth="1100" pageHeight="600" math="0" shadow="0">
      <root>
        <mxCell id="0" />
        <mxCell id="1" parent="0" />
        <mxCell id="Nns040jZB5IDRX8xlAgg-2" style="edgeStyle=orthogonalEdgeStyle;rounded=0;orthogonalLoop=1;jettySize=auto;html=1;entryX=0;entryY=0.5;entryDx=0;entryDy=0;exitX=0.5;exitY=0;exitDx=0;exitDy=0;" edge="1" parent="1" source="Nns040jZB5IDRX8xlAgg-7" target="Nns040jZB5IDRX8xlAgg-3">
          <mxGeometry relative="1" as="geometry">
            <mxPoint x="380" y="125" as="targetPoint" />
            <Array as="points">
              <mxPoint x="120" y="125" />
            </Array>
          </mxGeometry>
        </mxCell>
        <mxCell id="Nns040jZB5IDRX8xlAgg-4" style="edgeStyle=orthogonalEdgeStyle;rounded=0;orthogonalLoop=1;jettySize=auto;html=1;entryX=1;entryY=0.5;entryDx=0;entryDy=0;" edge="1" parent="1" source="Nns040jZB5IDRX8xlAgg-3" target="Nns040jZB5IDRX8xlAgg-7">
          <mxGeometry relative="1" as="geometry">
            <mxPoint x="130" y="250" as="targetPoint" />
            <Array as="points">
              <mxPoint x="440" y="160" />
            </Array>
          </mxGeometry>
        </mxCell>
        <mxCell id="Nns040jZB5IDRX8xlAgg-3" value="/generateurl" style="text;html=1;strokeColor=none;fillColor=none;align=center;verticalAlign=middle;whiteSpace=wrap;rounded=0;" vertex="1" parent="1">
          <mxGeometry x="410" y="112.5" width="70" height="25" as="geometry" />
        </mxCell>
        <mxCell id="Nns040jZB5IDRX8xlAgg-5" value="1. GET request with Key" style="text;html=1;align=center;verticalAlign=middle;resizable=0;points=[];autosize=1;" vertex="1" parent="1">
          <mxGeometry x="215" y="100" width="150" height="20" as="geometry" />
        </mxCell>
        <mxCell id="Nns040jZB5IDRX8xlAgg-9" style="edgeStyle=orthogonalEdgeStyle;rounded=0;orthogonalLoop=1;jettySize=auto;html=1;entryX=-0.04;entryY=0.5;entryDx=0;entryDy=0;entryPerimeter=0;" edge="1" parent="1" source="Nns040jZB5IDRX8xlAgg-7" target="Nns040jZB5IDRX8xlAgg-10">
          <mxGeometry relative="1" as="geometry">
            <mxPoint x="310" y="320" as="targetPoint" />
            <Array as="points">
              <mxPoint x="140" y="210" />
              <mxPoint x="408" y="210" />
            </Array>
          </mxGeometry>
        </mxCell>
        <mxCell id="Nns040jZB5IDRX8xlAgg-14" style="edgeStyle=orthogonalEdgeStyle;rounded=0;orthogonalLoop=1;jettySize=auto;html=1;entryX=0;entryY=0.5;entryDx=0;entryDy=0;entryPerimeter=0;" edge="1" parent="1" source="Nns040jZB5IDRX8xlAgg-7" target="Nns040jZB5IDRX8xlAgg-16">
          <mxGeometry relative="1" as="geometry">
            <mxPoint x="350" y="430" as="targetPoint" />
            <Array as="points">
              <mxPoint x="120" y="260" />
            </Array>
          </mxGeometry>
        </mxCell>
        <mxCell id="Nns040jZB5IDRX8xlAgg-7" value="CPX Team" style="rounded=0;whiteSpace=wrap;html=1;" vertex="1" parent="1">
          <mxGeometry x="80" y="140" width="80" height="40" as="geometry" />
        </mxCell>
        <mxCell id="Nns040jZB5IDRX8xlAgg-8" value="2. Receive pre-signed-url" style="text;html=1;align=center;verticalAlign=middle;resizable=0;points=[];autosize=1;" vertex="1" parent="1">
          <mxGeometry x="220" y="140" width="150" height="20" as="geometry" />
        </mxCell>
        <mxCell id="Nns040jZB5IDRX8xlAgg-10" value="/upload" style="text;html=1;align=center;verticalAlign=middle;resizable=0;points=[];autosize=1;" vertex="1" parent="1">
          <mxGeometry x="410" y="200" width="50" height="20" as="geometry" />
        </mxCell>
        <mxCell id="Nns040jZB5IDRX8xlAgg-11" value="3. POST request with object" style="text;html=1;align=center;verticalAlign=middle;resizable=0;points=[];autosize=1;" vertex="1" parent="1">
          <mxGeometry x="215" y="190" width="160" height="20" as="geometry" />
        </mxCell>
        <mxCell id="Nns040jZB5IDRX8xlAgg-15" value="Get list of objects in bucket" style="text;html=1;align=center;verticalAlign=middle;resizable=0;points=[];autosize=1;" vertex="1" parent="1">
          <mxGeometry x="215" y="240" width="160" height="20" as="geometry" />
        </mxCell>
        <mxCell id="Nns040jZB5IDRX8xlAgg-16" value="/list" style="text;html=1;align=center;verticalAlign=middle;resizable=0;points=[];autosize=1;" vertex="1" parent="1">
          <mxGeometry x="410" y="250" width="30" height="20" as="geometry" />
        </mxCell>
      </root>
    </mxGraphModel>
  </diagram>
</mxfile>
